<svg width="188" height="188" viewBox="0 0 188 188" fill="none" xmlns="http://www.w3.org/2000/svg">
<path d="M75.2787 0.394072C73.6386 0.390518 72.0139 0.710886 70.498 1.3369C68.982 1.9629 67.6046 2.88221 66.4449 4.04196C65.2851 5.20171 64.3658 6.5792 63.7398 8.09516C63.1138 9.61113 62.7934 11.2357 62.797 12.8758V62.797H12.8758C11.2357 62.7934 9.61104 63.1138 8.09508 63.7398C6.57911 64.3658 5.20172 65.2851 4.04197 66.4449C2.88223 67.6046 1.96296 68.9819 1.33695 70.4979C0.710943 72.0139 0.390518 73.6386 0.394072 75.2787V112.721C0.390518 114.361 0.710943 115.986 1.33695 117.502C1.96296 119.018 2.88223 120.395 4.04197 121.555C5.20172 122.715 6.57911 123.634 8.09508 124.26C9.61104 124.886 11.2357 125.206 12.8758 125.203H62.797V175.124C62.7934 176.764 63.1138 178.389 63.7398 179.905C64.3658 181.421 65.2851 182.798 66.4449 183.958C67.6046 185.118 68.982 186.037 70.498 186.663C72.0139 187.289 73.6386 187.609 75.2787 187.606H112.721C114.361 187.609 115.986 187.289 117.502 186.663C119.018 186.037 120.395 185.118 121.555 183.958C122.715 182.798 123.634 181.421 124.26 179.905C124.886 178.389 125.206 176.764 125.203 175.124V125.203H175.124C176.764 125.206 178.389 124.886 179.905 124.26C181.421 123.634 182.798 122.715 183.958 121.555C185.118 120.395 186.037 119.018 186.663 117.502C187.289 115.986 187.609 114.361 187.606 112.721V75.2787C187.609 73.6386 187.289 72.0139 186.663 70.4979C186.037 68.9819 185.118 67.6046 183.958 66.4449C182.798 65.2851 181.421 64.3658 179.905 63.7398C178.389 63.1138 176.764 62.7934 175.124 62.797H125.203V12.8789C125.206 11.2388 124.886 9.61405 124.26 8.09809C123.634 6.58213 122.715 5.20463 121.555 4.04488C120.395 2.88513 119.018 1.96601 117.502 1.34C115.986 0.713994 114.361 0.393443 112.721 0.396997L75.2787 0.394072Z" fill="#F7F7F7"/>
</svg>
